<svg width="676" height="676" viewBox="0 0 676 676" fill="none" xmlns="http://www.w3.org/2000/svg">
<path d="M337.894 669.464C523.795 669.464 674.498 520.228 674.498 336.136C674.498 152.044 523.795 2.80811 337.894 2.80811C151.993 2.80811 1.29053 152.044 1.29053 336.136C1.29053 520.228 151.993 669.464 337.894 669.464Z" fill="#FEFEFE"/>
<path d="M193.619 530.525V525.467H193.089L192.912 525.727C192.422 526.613 190.567 527.241 188.305 527.241H183.424V515.436H189.764C192.422 515.436 194.82 516.553 195.843 518.188L196.156 518.681H196.635V514.193H176.731V514.864C177.879 514.864 178.504 515.802 178.504 517.752V539.915C178.504 541.879 177.879 542.807 176.731 542.807V543.473H196.688L196.809 542.845C196.987 541.702 197.259 540.148 197.48 538.989H196.987L196.592 539.478C195.27 541.114 192.695 542.234 190.036 542.234H183.424V528.479H188.305C190.567 528.479 192.381 529.188 192.912 530.209L193.089 530.525H193.619Z" fill="#279989"/>
<path d="M252.776 520.492V516.064C250.609 514.822 247.64 513.977 245.294 513.977C239.61 513.977 235.793 517.52 235.793 522.85C235.793 526.177 238.725 529.324 243.156 530.744C247.954 532.256 251.143 534.913 251.143 537.354C251.143 540.406 248.701 542.451 245.062 542.451C244.451 542.451 243.78 542.409 243.113 542.315C240.538 541.879 238.096 540.269 236.913 538.198C236.735 537.884 236.502 537.531 236.327 537.217H235.752V541.648C237.922 542.887 241.655 543.73 245.117 543.73C250.871 543.73 254.685 540.364 254.685 535.35C254.685 531.805 251.631 528.438 247.012 526.968C242.364 525.51 239.254 523.068 239.254 520.942C239.254 517.52 241.599 515.216 245.117 515.216C245.117 515.216 246.97 515.394 246.931 515.489C248.62 515.887 250.392 517.303 251.36 519.034C251.631 519.484 251.987 520.099 252.246 520.549L252.776 520.492Z" fill="#279989"/>
<path d="M300.689 543.473H309.206V542.807C308.048 542.807 307.424 541.879 307.424 539.915V515.436H312.002C314.127 515.436 316.391 516.688 317.631 518.504L318.028 519.034H318.558C318.422 517.752 318.3 516.064 318.165 514.822L318.122 514.193H291.774L291.732 514.822C291.596 516.064 291.459 517.752 291.323 519.034H291.857L292.265 518.504C293.504 516.688 295.769 515.436 297.895 515.436H302.462V539.915C302.462 541.879 301.833 542.807 300.689 542.807V543.473Z" fill="#279989"/>
<path d="M372.451 530.525V525.467H371.921L371.743 525.727C371.255 526.613 369.385 527.241 367.124 527.241H362.242V515.436H368.596C371.255 515.436 373.638 516.553 374.661 518.188L374.974 518.681H375.466V514.193H355.552V514.864C356.711 514.864 357.322 515.802 357.322 517.752V539.915C357.322 541.879 356.711 542.807 355.552 542.807V543.473H375.505L375.641 542.845C375.819 541.702 376.077 540.148 376.311 538.989H375.819L375.425 539.478C374.088 541.114 371.513 542.234 368.854 542.234H362.242V528.479H367.124C369.385 528.479 371.213 529.188 371.743 530.209L371.921 530.525H372.451Z" fill="#279989"/>
<path d="M432.058 530.525V525.467H431.527L431.349 525.727C430.861 526.613 428.99 527.241 426.729 527.241H421.862V515.436H428.202C430.861 515.436 433.258 516.553 434.266 518.188L434.581 518.681H435.072V514.193H415.158V514.864C416.317 514.864 416.928 515.802 416.928 517.752V539.915C416.928 541.879 416.317 542.807 415.158 542.807V543.473H435.111L435.246 542.845C435.424 541.702 435.697 540.148 435.917 538.989H435.424L435.031 539.478C433.693 541.114 431.133 542.234 428.46 542.234H421.862V528.479H426.729C428.99 528.479 430.819 529.188 431.349 530.209L431.527 530.525H432.058Z" fill="#279989"/>
<path d="M504.462 543.473H512.928V542.807C511.825 542.807 511.198 542.057 511.02 540.364C510.72 532.826 510.353 525.234 510.053 517.752C509.959 515.802 510.489 514.864 511.647 514.864V514.193H505.433L496.082 537.79L485.708 514.193H480.121V514.864C481.266 514.864 481.796 515.802 481.754 517.697L480.91 539.97C480.871 541.92 480.201 542.845 479 542.845V543.516H484.863V542.845H484.455C483.173 542.845 482.33 541.429 482.424 539.304L483.132 520.369C486.677 528.165 490.219 535.935 493.722 543.73H494.979L505.569 518.148L506.193 540.364C506.141 542.057 505.607 542.807 504.547 542.807L504.462 543.473Z" fill="#279989"/>
<path d="M236.571 447.694C233.748 462.795 221.06 473.728 205.956 473.728C189.094 473.728 175.737 459.564 175.737 441.901C175.737 424.085 189.094 409.787 205.956 409.787C216.344 409.787 226.595 415.046 233.871 425.842L250.201 414.243C241.163 399.535 224.575 389.832 205.819 389.832C177.224 389.832 154.299 413.165 154.299 441.901C154.299 470.619 177.224 493.818 205.956 493.818C232.66 493.818 254.782 473.455 257.753 447.694H236.571Z" fill="#279989"/>
<path d="M335.978 492.074H358.781L305.637 389.832L252.626 492.074H274.204L280.681 478.577H329.368L335.978 492.074ZM304.818 428.403L320.195 459.701H289.715L304.818 428.403Z" fill="#279989"/>
<path d="M398.965 474.665L415.431 492.074H443.21L421.495 468.874C435.52 462.401 444.148 449.18 444.148 431.104C444.148 409.255 426.074 391.59 402.482 391.59H367.545V492.074H388.454V474.665H398.965ZM388.454 455.789V410.467H401.131C415.689 410.467 423.118 420.444 423.118 432.728C423.118 446.75 414.747 455.789 399.917 455.789H388.454Z" fill="#279989"/>
<path d="M520.901 492.074V473.179H479.493V448.102H517.262V429.209H479.493V410.467H511.999V391.59H458.584V492.074H520.901Z" fill="#279989"/>
<path fill-rule="evenodd" clip-rule="evenodd" d="M238.832 340.909L282.984 302.282V131.466L233.804 174.498C233.124 175.097 232.562 176.309 232.562 177.317V338.049C232.562 342.654 235.343 343.963 238.832 340.909ZM291.379 302.282L333.402 339.044V168.227L291.379 131.466V302.282ZM341.798 339.044L383.82 302.282V131.466L341.798 168.227V339.044ZM436.367 340.909L392.216 302.282V131.466L441.395 174.498C442.023 175.042 442.638 176.364 442.638 177.317V338.049C442.638 342.617 439.828 343.949 436.367 340.909Z" fill="#279989"/>
<path fill-rule="evenodd" clip-rule="evenodd" d="M337.6 0C291.815 0 248.005 8.84598 206.188 26.5364C165.789 43.6173 130.023 67.7431 98.8755 98.8755C67.7299 130.022 43.6184 165.787 26.5379 206.188C8.84674 248.005 0 291.814 0 337.599C0 383.383 8.84674 427.193 26.5379 469.01C43.6312 509.409 67.7439 545.176 98.8755 576.323C130.023 607.455 165.789 631.567 206.188 648.661C248.005 666.352 291.815 675.199 337.6 675.199C383.384 675.199 427.179 666.352 469.01 648.661C509.411 631.58 545.176 607.468 576.323 576.323C607.455 545.176 631.581 509.409 648.662 469.01C666.354 427.193 675.199 383.383 675.199 337.599C675.199 291.814 666.354 248.019 648.662 206.188C631.581 165.801 607.469 130.022 576.323 98.8755C545.176 67.7431 509.411 43.6173 469.01 26.5364C427.179 8.84598 383.384 0 337.6 0ZM103.388 103.373C133.933 72.827 169.031 49.1652 208.671 32.3989C249.699 15.0455 292.674 6.36435 337.6 6.36435C382.526 6.36435 425.501 15.0455 466.529 32.3989C506.169 49.1652 541.265 72.8269 571.826 103.387C602.385 133.947 626.033 169.03 642.8 208.655C660.153 249.698 668.834 292.687 668.834 337.599C668.834 382.525 660.153 425.5 642.8 466.527C626.033 506.169 602.371 541.266 571.812 571.824C541.265 602.371 506.169 626.033 466.529 642.799C425.501 660.151 382.526 668.834 337.6 668.834C292.674 668.834 249.699 660.151 208.671 642.799C169.031 626.033 133.933 602.371 103.388 571.824C72.8281 541.266 49.1652 506.169 32.3996 466.527C15.0474 425.5 6.36509 382.525 6.36509 337.599C6.36509 292.673 15.0474 249.698 32.3996 208.669C49.1652 169.03 72.8281 133.933 103.388 103.373Z" fill="#279989"/>
<path fill-rule="evenodd" clip-rule="evenodd" d="M108.852 108.852C79.0179 138.703 55.9004 172.97 39.5294 211.681C22.5877 251.753 14.1079 293.723 14.1079 337.599C14.1079 381.474 22.5877 423.445 39.5294 463.517C55.9004 502.229 79.0179 536.494 108.852 566.347C138.705 596.18 172.969 619.298 211.682 635.67C251.754 652.611 293.724 661.091 337.6 661.091C381.475 661.091 423.446 652.611 463.518 635.67C502.23 619.298 536.495 596.18 566.347 566.347C596.182 536.494 619.299 502.229 635.671 463.517C652.612 423.445 661.092 381.474 661.092 337.599C661.092 293.723 652.612 251.753 635.671 211.681C619.299 172.983 596.195 138.703 566.347 108.852C536.495 79.0172 502.23 55.9004 463.518 39.5275C423.446 22.5869 381.475 14.1072 337.6 14.1072C293.724 14.1072 251.754 22.5869 211.682 39.5275C172.969 55.9004 138.705 79.0172 108.852 108.852ZM24.9317 337.599C24.9317 295.182 33.1227 254.618 49.4937 215.893C65.3186 178.489 87.6579 145.354 116.515 116.515C145.354 87.6572 178.49 65.3179 215.893 49.4938C254.619 33.1209 295.196 24.9321 337.6 24.9321C380.003 24.9321 420.581 33.1209 459.306 49.4938C496.71 65.3179 529.844 87.6572 558.699 116.501C587.542 145.354 609.881 178.489 625.706 215.893C642.092 254.631 650.268 295.196 650.268 337.599C650.268 380.015 642.092 420.58 625.706 459.305C609.881 496.709 587.542 529.845 558.699 558.697C529.844 587.541 496.71 609.88 459.306 625.705C420.581 642.091 380.017 650.267 337.6 650.267C295.183 650.267 254.619 642.091 215.893 625.705C178.49 609.88 145.354 587.541 116.502 558.697C87.6579 529.845 65.3186 496.723 49.4937 459.305C33.1227 420.58 24.9317 380.015 24.9317 337.599Z" fill="#279989"/>
<path d="M556.089 343C570.494 343 582.177 354.683 582.177 369.088H582.177C582.177 383.493 570.494 395.176 556.089 395.176C541.683 395.176 530 383.493 530 369.088H530C530 354.683 541.683 343 556.089 343Z" stroke="#279989" stroke-width="3.99987" stroke-miterlimit="22.9256"/>
<path d="M546.324 382.132L546.693 379.151V359.026L546.324 356.044H555.898C557.713 356.044 559.269 356.404 560.558 357.125C561.848 357.821 562.835 358.752 563.504 359.92C564.175 361.088 564.506 362.368 564.506 363.758C564.506 364.728 564.348 365.672 564.023 366.591C563.699 367.511 563.195 368.356 562.496 369.126C561.804 369.871 560.897 370.48 559.773 370.952C558.686 371.399 557.352 371.623 555.789 371.623H550.496V379.151L550.87 382.132H546.324ZM561.307 382.132L559.666 379.151L553.55 370.206H556.87L559.514 372.48L565.853 382.132H561.307ZM550.496 368.343H555.487C557.18 368.343 558.419 367.933 559.219 367.113C560.039 366.293 560.45 365.237 560.45 363.945C560.45 362.604 560.011 361.498 559.14 360.628C558.296 359.759 557.057 359.324 555.415 359.324H550.496V368.343Z" fill="#279989"/>
</svg>
